<svg xmlns="http://www.w3.org/2000/svg" viewBox="0 0 900 560" font-family="'Segoe UI', system-ui, -apple-system, sans-serif">
  <defs>
    <linearGradient id="bg2" x1="0" y1="0" x2="1" y2="1">
      <stop offset="0%" stop-color="#f5f7fa"/>
      <stop offset="100%" stop-color="#e8edf3"/>
    </linearGradient>
    <linearGradient id="heroCol" x1="0" y1="0" x2="0" y2="1">
      <stop offset="0%" stop-color="#0058a3"/>
      <stop offset="100%" stop-color="#003d75"/>
    </linearGradient>
    <filter id="cardShadow" x="-5%" y="-5%" width="110%" height="115%">
      <feDropShadow dx="0" dy="2" stdDeviation="4" flood-color="#8a9ab0" flood-opacity="0.15"/>
    </filter>
  </defs>

  <!-- Background -->
  <rect width="900" height="560" fill="url(#bg2)" rx="12"/>

  <!-- Title -->
  <text x="450" y="40" text-anchor="middle" fill="#5a7aa0" font-size="13" font-weight="500" letter-spacing="3">COMPETITOR FEATURE MATRIX</text>
  <text x="450" y="68" text-anchor="middle" fill="#1a2744" font-size="20" font-weight="600">No Existing Library Covers Everything</text>

  <!-- Table -->
  <g transform="translate(30, 90)">
    <!-- Header row -->
    <rect x="0" y="0" width="170" height="44" rx="6" fill="#e0e8f2"/>
    <text x="85" y="27" text-anchor="middle" fill="#4a6a8a" font-size="12" font-weight="600">Library</text>

    <!-- Feature headers -->
    <g font-size="10" font-weight="600" fill="#4a6a8a" text-anchor="middle">
      <rect x="176" y="0" width="72" height="44" rx="4" fill="#e0e8f2"/>
      <text x="212" y="20" font-size="9.5">Type</text>
      <text x="212" y="33" font-size="9.5">Script</text>

      <rect x="254" y="0" width="72" height="44" rx="4" fill="#e0e8f2"/>
      <text x="290" y="27">Zoom</text>

      <rect x="332" y="0" width="72" height="44" rx="4" fill="#e0e8f2"/>
      <text x="368" y="20">Pop</text>
      <text x="368" y="33">overs</text>

      <rect x="410" y="0" width="72" height="44" rx="4" fill="#e0e8f2"/>
      <text x="446" y="20">A11y</text>
      <text x="446" y="33">WCAG</text>

      <rect x="488" y="0" width="72" height="44" rx="4" fill="#e0e8f2"/>
      <text x="524" y="27">Touch</text>

      <rect x="566" y="0" width="72" height="44" rx="4" fill="#e0e8f2"/>
      <text x="602" y="27">React</text>

      <rect x="644" y="0" width="72" height="44" rx="4" fill="#e0e8f2"/>
      <text x="680" y="20">0 Dep</text>
      <text x="680" y="33">s</text>

      <rect x="722" y="0" width="72" height="44" rx="4" fill="#e0e8f2"/>
      <text x="758" y="20">Main</text>
      <text x="758" y="33">tained</text>

      <rect x="800" y="0" width="40" height="44" rx="4" fill="#e0e8f2"/>
      <text x="820" y="27" font-size="9">Size</text>
    </g>

    <!-- Row 1: jquery-hotspot -->
    <rect x="0" y="50" width="840" height="38" rx="4" fill="#ffffff" opacity="0.8"/>
    <text x="14" y="74" fill="#5a6a7a" font-size="11.5">jquery-hotspot</text>
    <text x="212" y="74" text-anchor="middle" fill="#a0aab5" font-size="11">-</text>
    <text x="290" y="74" text-anchor="middle" fill="#e74c3c" font-size="14">x</text>
    <text x="368" y="74" text-anchor="middle" fill="#e74c3c" font-size="14">x</text>
    <text x="446" y="74" text-anchor="middle" fill="#e74c3c" font-size="14">x</text>
    <text x="524" y="74" text-anchor="middle" fill="#e74c3c" font-size="14">x</text>
    <text x="602" y="74" text-anchor="middle" fill="#e74c3c" font-size="14">x</text>
    <text x="680" y="74" text-anchor="middle" fill="#e74c3c" font-size="14">x</text>
    <text x="758" y="74" text-anchor="middle" fill="#e74c3c" font-size="10">2018</text>
    <text x="820" y="74" text-anchor="middle" fill="#5a6a7a" font-size="10">?</text>

    <!-- Row 2: image-hotspot -->
    <rect x="0" y="92" width="840" height="38" rx="4" fill="#f0f4f8" opacity="0.8"/>
    <text x="14" y="116" fill="#5a6a7a" font-size="11.5">image-hotspot</text>
    <text x="212" y="116" text-anchor="middle" fill="#a0aab5" font-size="11">-</text>
    <text x="290" y="116" text-anchor="middle" fill="#e74c3c" font-size="14">x</text>
    <text x="368" y="116" text-anchor="middle" fill="#d4880a" font-size="11">basic</text>
    <text x="446" y="116" text-anchor="middle" fill="#e74c3c" font-size="14">x</text>
    <text x="524" y="116" text-anchor="middle" fill="#e74c3c" font-size="14">x</text>
    <text x="602" y="116" text-anchor="middle" fill="#e74c3c" font-size="14">x</text>
    <text x="680" y="116" text-anchor="middle" fill="#e74c3c" font-size="14">x</text>
    <text x="758" y="116" text-anchor="middle" fill="#e74c3c" font-size="10">2020</text>
    <text x="820" y="116" text-anchor="middle" fill="#5a6a7a" font-size="10">?</text>

    <!-- Row 3: react-image-hotspots -->
    <rect x="0" y="134" width="840" height="38" rx="4" fill="#ffffff" opacity="0.8"/>
    <text x="14" y="158" fill="#5a6a7a" font-size="11.5">react-image-hotspots</text>
    <text x="212" y="158" text-anchor="middle" fill="#a0aab5" font-size="11">-</text>
    <text x="290" y="158" text-anchor="middle" fill="#d4880a" font-size="11">basic</text>
    <text x="368" y="158" text-anchor="middle" fill="#e74c3c" font-size="14">x</text>
    <text x="446" y="158" text-anchor="middle" fill="#e74c3c" font-size="14">x</text>
    <text x="524" y="158" text-anchor="middle" fill="#e74c3c" font-size="14">x</text>
    <text x="602" y="158" text-anchor="middle" fill="#1a9a50" font-size="14">&#10003;</text>
    <text x="680" y="158" text-anchor="middle" fill="#e74c3c" font-size="14">x</text>
    <text x="758" y="158" text-anchor="middle" fill="#e74c3c" font-size="10">2020</text>
    <text x="820" y="158" text-anchor="middle" fill="#5a6a7a" font-size="10">?</text>

    <!-- Row 4: POI.js -->
    <rect x="0" y="176" width="840" height="38" rx="4" fill="#f0f4f8" opacity="0.8"/>
    <text x="14" y="200" fill="#5a6a7a" font-size="11.5">POI.js</text>
    <text x="212" y="200" text-anchor="middle" fill="#a0aab5" font-size="11">-</text>
    <text x="290" y="200" text-anchor="middle" fill="#e74c3c" font-size="14">x</text>
    <text x="368" y="200" text-anchor="middle" fill="#e74c3c" font-size="14">x</text>
    <text x="446" y="200" text-anchor="middle" fill="#e74c3c" font-size="14">x</text>
    <text x="524" y="200" text-anchor="middle" fill="#d4880a" font-size="11">partial</text>
    <text x="602" y="200" text-anchor="middle" fill="#e74c3c" font-size="14">x</text>
    <text x="680" y="200" text-anchor="middle" fill="#1a9a50" font-size="14">&#10003;</text>
    <text x="758" y="200" text-anchor="middle" fill="#1a9a50" font-size="10">Active</text>
    <text x="820" y="200" text-anchor="middle" fill="#5a6a7a" font-size="10">~8K</text>

    <!-- Row 5: Annotorious -->
    <rect x="0" y="218" width="840" height="38" rx="4" fill="#ffffff" opacity="0.8"/>
    <text x="14" y="242" fill="#5a6a7a" font-size="11.5">Annotorious</text>
    <text x="212" y="242" text-anchor="middle" fill="#1a9a50" font-size="14">&#10003;</text>
    <text x="290" y="242" text-anchor="middle" fill="#1a9a50" font-size="14">&#10003;</text>
    <text x="368" y="242" text-anchor="middle" fill="#d4880a" font-size="11">annot.</text>
    <text x="446" y="242" text-anchor="middle" fill="#d4880a" font-size="11">partial</text>
    <text x="524" y="242" text-anchor="middle" fill="#1a9a50" font-size="14">&#10003;</text>
    <text x="602" y="242" text-anchor="middle" fill="#1a9a50" font-size="14">&#10003;</text>
    <text x="680" y="242" text-anchor="middle" fill="#e74c3c" font-size="14">x</text>
    <text x="758" y="242" text-anchor="middle" fill="#1a9a50" font-size="10">Active</text>
    <text x="820" y="242" text-anchor="middle" fill="#d4880a" font-size="10">45K</text>

    <!-- Row 6: AJAX-ZOOM -->
    <rect x="0" y="260" width="840" height="38" rx="4" fill="#f0f4f8" opacity="0.8"/>
    <text x="14" y="284" fill="#5a6a7a" font-size="11.5">AJAX-ZOOM</text>
    <text x="212" y="284" text-anchor="middle" fill="#e74c3c" font-size="14">x</text>
    <text x="290" y="284" text-anchor="middle" fill="#1a9a50" font-size="14">&#10003;</text>
    <text x="368" y="284" text-anchor="middle" fill="#1a9a50" font-size="14">&#10003;</text>
    <text x="446" y="284" text-anchor="middle" fill="#e74c3c" font-size="14">x</text>
    <text x="524" y="284" text-anchor="middle" fill="#1a9a50" font-size="14">&#10003;</text>
    <text x="602" y="284" text-anchor="middle" fill="#e74c3c" font-size="14">x</text>
    <text x="680" y="284" text-anchor="middle" fill="#e74c3c" font-size="14">x</text>
    <text x="758" y="284" text-anchor="middle" fill="#1a9a50" font-size="10">Active</text>
    <text x="820" y="284" text-anchor="middle" fill="#e74c3c" font-size="10">Heavy</text>

    <!-- Row 7: @hogrid/react-hotspot -->
    <rect x="0" y="302" width="840" height="38" rx="4" fill="#ffffff" opacity="0.8"/>
    <text x="14" y="326" fill="#5a6a7a" font-size="11.5">@hogrid/react-hotspot</text>
    <text x="212" y="326" text-anchor="middle" fill="#e74c3c" font-size="14">x</text>
    <text x="290" y="326" text-anchor="middle" fill="#e74c3c" font-size="14">x</text>
    <text x="368" y="326" text-anchor="middle" fill="#1a9a50" font-size="14">&#10003;</text>
    <text x="446" y="326" text-anchor="middle" fill="#e74c3c" font-size="14">x</text>
    <text x="524" y="326" text-anchor="middle" fill="#e74c3c" font-size="14">x</text>
    <text x="602" y="326" text-anchor="middle" fill="#1a9a50" font-size="14">&#10003;</text>
    <text x="680" y="326" text-anchor="middle" fill="#e74c3c" font-size="14">x</text>
    <text x="758" y="326" text-anchor="middle" fill="#e74c3c" font-size="10">2021</text>
    <text x="820" y="326" text-anchor="middle" fill="#5a6a7a" font-size="10">?</text>

    <!-- Highlight row: js-cloudimage-hotspot -->
    <rect x="-4" y="350" width="848" height="44" rx="8" fill="url(#heroCol)" stroke="#0078d4" stroke-width="1.5"/>
    <text x="14" y="378" fill="#ffffff" font-size="12.5" font-weight="700">js-cloudimage-hotspot</text>
    <text x="212" y="378" text-anchor="middle" fill="#ffffff" font-size="14" font-weight="700">&#10003;</text>
    <text x="290" y="378" text-anchor="middle" fill="#ffffff" font-size="14" font-weight="700">&#10003;</text>
    <text x="368" y="378" text-anchor="middle" fill="#ffffff" font-size="14" font-weight="700">&#10003;</text>
    <text x="446" y="378" text-anchor="middle" fill="#ffffff" font-size="14" font-weight="700">&#10003;</text>
    <text x="524" y="378" text-anchor="middle" fill="#ffffff" font-size="14" font-weight="700">&#10003;</text>
    <text x="602" y="378" text-anchor="middle" fill="#ffffff" font-size="14" font-weight="700">&#10003;</text>
    <text x="680" y="378" text-anchor="middle" fill="#ffffff" font-size="14" font-weight="700">&#10003;</text>
    <text x="758" y="378" text-anchor="middle" fill="#ffffff" font-size="10" font-weight="700">2025</text>
    <text x="820" y="378" text-anchor="middle" fill="#7fe0a3" font-size="9.5" font-weight="700">9.5K</text>

    <!-- Legend -->
    <g transform="translate(0, 415)">
      <circle cx="10" cy="8" r="5" fill="#1a9a50"/>
      <text x="22" y="12" fill="#5a6a7a" font-size="11">Full support</text>

      <text x="130" y="12" fill="#e74c3c" font-size="14">x</text>
      <text x="145" y="12" fill="#5a6a7a" font-size="11">Not supported</text>

      <text x="275" y="12" fill="#d4880a" font-size="11">partial</text>
      <text x="315" y="12" fill="#5a6a7a" font-size="11">Limited</text>

      <rect x="530" y="0" width="310" height="20" rx="4" fill="#0058a3" opacity="0.1"/>
      <text x="540" y="13" fill="#0058a3" font-size="11" font-weight="500">Only js-cloudimage-hotspot checks every box</text>
    </g>
  </g>
</svg>